<?xml version="1.0" encoding="utf-8"?>
<!-- Generator: Adobe Illustrator 26.0.1, SVG Export Plug-In . SVG Version: 6.00 Build 0)  -->
<svg version="1.1"
	 id="svg9" xmlns:inkscape="http://www.inkscape.org/namespaces/inkscape" xmlns:sodipodi="http://sodipodi.sourceforge.net/DTD/sodipodi-0.dtd" xmlns:svg="http://www.w3.org/2000/svg"
	 xmlns="http://www.w3.org/2000/svg" xmlns:xlink="http://www.w3.org/1999/xlink" x="0px" y="0px" viewBox="0 0 205.1 80"
	 style="enable-background:new 0 0 205.1 80;" xml:space="preserve">
<style type="text/css">
	.st0{clip-path:url(#SVGID_00000044900721085229076520000014961090307395698059_);}
	.st1{fill:#FFFFFF;}
</style>
<sodipodi:namedview  bordercolor="#666666" borderopacity="1.0" id="namedview11" inkscape:current-layer="g23" inkscape:cx="541.79504" inkscape:cy="537.51338" inkscape:pagecheckerboard="0" inkscape:pageopacity="0.0" inkscape:pageshadow="2" inkscape:window-height="890" inkscape:window-maximized="1" inkscape:window-width="1440" inkscape:window-x="-6" inkscape:window-y="-6" inkscape:zoom="1.5181018" pagecolor="#ffffff" showgrid="false">
	</sodipodi:namedview>
<g id="g15" transform="matrix(1.3333333,0,0,-1.3333333,0,1122.52)" inkscape:groupmode="layer" inkscape:label="Softbase_Logo2020_final">
	<g id="g21">
		<g>
			<defs>
				<rect id="SVGID_1_" x="-323.8" y="239.5" width="793.7" height="1122.5"/>
			</defs>
			<clipPath id="SVGID_00000135669293553842572830000011356599884959983002_">
				<use xlink:href="#SVGID_1_"  style="overflow:visible;"/>
			</clipPath>
			<g id="g23" style="clip-path:url(#SVGID_00000135669293553842572830000011356599884959983002_);">
				<g id="g149" transform="translate(257.7368,361.1005)">
				</g>
				<g id="g185" transform="translate(191.8184,419.6376)">
					<path id="path187" class="st1" d="M-191,383.6h14.2c2.3,0,2.8,1.9,3,2.8c0.2,1,0.2,2.2-1.9,2.9l-9.4,3.2
						c-0.4,0.1-1.9,0.7-2.6,1.9c-0.9,1.4-0.6,3.4-0.3,4.8c0.3,1.5,0.9,3.4,2.7,4.8c1.6,1.2,3.3,1.4,4.5,1.4h14.8l-0.8-3.8H-180
						c-0.7,0-1.4,0-2.1-0.6c-0.7-0.6-1-1.5-1.1-2c-0.2-1.1-0.1-2.2,1.8-2.9l8.7-3c1.6-0.5,2.7-1.1,3.3-1.8c1.2-1.5,0.9-3.7,0.6-4.9
						c-0.3-1.6-0.9-3.4-2.3-4.8c-1.6-1.6-3.3-1.8-5-1.8h-15.7L-191,383.6z"/>
				</g>
				<g id="g189" transform="translate(234.3145,420.8505)">
					<path id="path191" class="st1" d="M-204,383.3c0.9-1.4,2.8-1.6,4.3-1.6c1.6,0,3.4,0.2,5,1.6c1.6,1.4,2,3.3,2.3,5
						c0.3,1.4,0.9,3.6-0.2,5.1c-0.9,1.4-2.8,1.5-4.3,1.5c-1.4,0-3.5-0.1-5-1.5c-1.5-1.4-2-3.9-2.3-5.1
						C-204.5,386.6-204.9,384.6-204,383.3 M-188.8,396.1c1.8-2.1,1.3-5.7,0.8-7.8c-0.9-4.1-2.5-6.6-4.2-7.9c-2.5-1.9-6-2.1-8.3-2.1
						c-2.3,0-5.7,0.1-7.4,2.1c-1.9,2.1-1.3,5.8-0.8,7.8c0.5,2.2,1.5,5.9,4.2,7.9c2.5,2,6,2,8.3,2
						C-193.9,398.2-190.5,398.1-188.8,396.1"/>
				</g>
				<g id="g193" transform="translate(289.0459,437.3007)">
					<path id="path195" class="st1" d="M-220.7,378.2h5.4l0.7,3.3h-5.4l1.3,6.2h-4.3l-1.3-6.2h-8.6c0.3,1.6,1.1,2.4,1.7,2.7
						c0.9,0.5,2.1,0.6,4.3,0.6l0.7,3.1c-2.2,0.1-5.8-0.1-7.9-1.6c-1.9-1.4-2.7-3.6-3.1-4.9h-2.7l-0.7-3.3h2.7l-3.4-16.1h4.3
						l3.4,16.1h8.6l-2.1-9.8c-0.5-2.5-0.1-3.9,0.9-4.9c1-1,2.3-1.4,4.9-1.4h2.7l0.7,3.3h-1.1c-0.8,0-2.4,0-3.2,0.8
						c-1,1-0.5,2.9-0.2,4.2L-220.7,378.2z"/>
				</g>
				<g id="g197" transform="translate(303.1543,421.1664)">
					<path id="path199" class="st1" d="M-225.1,383.2c-0.1-0.4-0.2-0.9,0-1.3c0.2-0.3,0.7-0.3,1.1-0.3h3.1c1.1,0,3.1,0.1,4.5,2
						c0.4,0.5,1,1.6,1.5,4.1c0.7,3.1,0.4,4.3,0.3,4.6c-0.5,1.8-2.1,2.1-3.5,2.1h-4.7L-225.1,383.2z M-220.7,403.9l-1.3-6.2h5.7
						c2.3,0,5-0.4,6.1-3.2c0.7-1.8,0.4-4.2-0.1-6.6c-0.7-3.1-1.6-5.1-2.6-6.4c-2.2-2.7-5.1-3.2-7.4-3.2h-6.1c-1.1,0-2.2,0-2.9,0.8
						c-0.6,0.7-0.5,1.6-0.4,2.4l4.8,22.4H-220.7z"/>
				</g>
				<g id="g201" transform="translate(336.1943,426.7563)">
					<path id="path203" class="st1" d="M-235.2,381.5c-0.3,0-1.1,0-1.7-0.7c-0.2-0.2-0.6-0.7-0.9-2.1c-0.1-0.6-0.3-1.6,0.1-2.2
						c0.2-0.3,0.7-0.6,1.3-0.6h6c0.3,0,0.7,0,1,0.2c0.3,0.3,0.4,0.5,0.5,0.8l0.9,4.5H-235.2z M-226.9,392.1c1.6,0,3-0.6,3.7-1.5
						c0.6-0.8,0.9-2.4,0.5-4.6l-2.1-10.1c-0.1-0.7-0.5-1.8-1.3-2.5c-0.8-0.7-1.9-0.8-2.8-0.8h-9.3c-1.1,0-2.4,0-3.3,1
						c-1.3,1.4-0.9,3.8-0.6,5.3c0.4,1.7,0.9,3.4,2.7,4.7c1.4,1.1,2.8,1.1,3.8,1.1h8.4l0.3,1.4c0.1,0.6,0.2,1.2-0.2,1.8
						c-0.4,0.7-1.2,0.8-1.9,0.8h-9.6l0.7,3.3H-226.9z"/>
				</g>
				<g id="g205" transform="translate(354.8135,418.8466)">
					<path id="path207" class="st1" d="M-240.9,383.9h10.9c0.4,0,1,0.1,1.5,0.5c0.5,0.4,0.6,0.9,0.6,1.2c0.1,0.5,0.1,1-0.2,1.5
						c-0.2,0.3-0.7,0.5-3.2,1.2l-3.5,1c-1.9,0.5-3.2,1.3-3.7,2.3c-0.5,1.1-0.4,2.3-0.2,3.3c0.2,1,0.6,2.2,1.6,3.3
						c1.5,1.6,3.4,1.7,5,1.7h10.9l-0.7-3.3h-10.3c-0.5,0-1,0-1.6-0.4c-0.6-0.4-0.7-0.9-0.8-1.4c-0.1-0.5-0.2-1,0.3-1.5
						c0.5-0.4,1.7-0.8,2.2-1l3.9-1.2c2.2-0.7,3.6-1.2,4.4-2.2c0.8-1.1,0.6-2.5,0.4-3.5c-0.5-2.3-1.6-3.6-2.5-4.1
						c-1.1-0.7-2.4-0.8-3.3-0.8h-12.4L-240.9,383.9z"/>
				</g>
				<g id="g209" transform="translate(403.9619,430.7631)">
					<path id="path211" class="st1" d="M-255.9,380.2c0.8,0,1.1,0.6,1.2,1.1c0.3,1.2-0.2,2.1-0.7,2.6c-0.9,0.8-2.3,0.9-3.5,0.9
						c-1.1,0-2.9,0-4.3-1.3c-1.1-1-1.3-2-1.6-3.3H-255.9z M-264.4,368.7c-2,0-4.3,0.2-5.4,2.5c-0.9,1.8-0.4,4.5,0.1,7.1
						c0.8,3.6,1.5,6.3,4,8.1c2.5,1.8,5.8,1.8,7.6,1.8c2.3,0,4.6-0.1,6.1-1.2c2-1.4,1.9-3.8,1.4-6.3c-0.2-1-0.6-2.1-1.5-2.9
						c-0.7-0.6-1.5-0.7-2.2-0.7h-11.3c-0.2-0.8-0.3-2.1-0.3-2.7c0.1-2.1,1.9-2.3,3.4-2.3h9.5l-0.7-3.3H-264.4z"/>
				</g>
				<g id="g213" transform="translate(225.8857,398.0322)">
					<path id="path215" class="st1" d="M-201.4,390.2c-1,1.8-1.1,4.1-0.5,6.8h-0.2c-1.1-3.7-1.2-6.9,0.2-9.2
						c4.6-7.8,22.6-3.6,41.1,9.1h-6C-182.6,386.6-197.5,383.6-201.4,390.2"/>
				</g>
				<g id="g217" transform="translate(327.5264,469.7944)">
					<path id="path219" class="st1" d="M-232.5,368.3c-4.8,8.2-25.9,2.7-45.5-11.7h0.7c17.1,12,33.9,16.1,38.1,8.9
						c1.7-2.9,1.1-7.1-1.3-12h5.8C-231.4,359.5-230.5,364.8-232.5,368.3"/>
				</g>
				<g id="g221" transform="translate(286.9712,396.9394)">
					<path id="path223" class="st1" d="M-220.1,390.6h4.4c0.7,0,0.9,0.6,0.9,0.9c0.1,0.3,0.1,0.7-0.6,0.9l-2.9,1
						c-0.1,0-0.6,0.2-0.8,0.6c-0.3,0.4-0.2,1.1-0.1,1.5c0.1,0.5,0.3,1.1,0.8,1.5c0.5,0.4,1,0.5,1.4,0.5h4.5l-0.3-1.2h-4
						c-0.2,0-0.4,0-0.7-0.2c-0.2-0.2-0.3-0.5-0.3-0.6c-0.1-0.4,0-0.7,0.5-0.9l2.7-0.9c0.5-0.2,0.8-0.3,1-0.6
						c0.4-0.5,0.3-1.2,0.2-1.6c-0.1-0.5-0.3-1.1-0.7-1.5c-0.5-0.5-1-0.6-1.5-0.6h-4.9L-220.1,390.6z"/>
				</g>
				<g id="g225" transform="translate(314.6045,406.8271)">
					<path id="path227" class="st1" d="M-228.6,387.5h1.6l-4.5-5.6l-0.5-2.5h-1.5l0.5,2.5l-2.2,5.6h1.6l1.6-4.2L-228.6,387.5z"/>
				</g>
				<g id="g229" transform="translate(321.4687,396.9394)">
					<path id="path231" class="st1" d="M-230.7,390.6h4.4c0.7,0,0.9,0.6,0.9,0.9c0.1,0.3,0.1,0.7-0.6,0.9l-2.9,1
						c-0.1,0-0.6,0.2-0.8,0.6c-0.3,0.4-0.2,1.1-0.1,1.5c0.1,0.5,0.3,1.1,0.8,1.5c0.5,0.4,1,0.5,1.4,0.5h4.5l-0.3-1.2h-4
						c-0.2,0-0.4,0-0.7-0.2c-0.2-0.2-0.3-0.5-0.3-0.6c-0.1-0.4,0-0.7,0.5-0.9l2.7-0.9c0.5-0.2,0.8-0.3,1-0.6
						c0.4-0.5,0.3-1.2,0.2-1.6c-0.1-0.5-0.3-1.1-0.7-1.5c-0.5-0.5-1-0.6-1.5-0.6h-4.8L-230.7,390.6z"/>
				</g>
				<g id="g233" transform="translate(341.6221,395.1943)">
					<path id="path235" class="st1" d="M-236.8,391.1l1.5,6.9h-3.1l0.3,1.2h7.7l-0.3-1.2h-3.1l-1.4-6.9H-236.8z"/>
				</g>
				<g id="g237" transform="translate(357.2539,395.1943)">
					<path id="path239" class="st1" d="M-241.6,391.1c-0.3,0-0.6,0-0.8,0.3c-0.2,0.3-0.2,0.6-0.1,0.9l1.2,5.7
						c0.1,0.3,0.2,0.6,0.4,0.8c0.3,0.3,0.7,0.3,1,0.3h5.1l-0.3-1.2h-4.3c-0.1,0-0.3,0-0.4-0.1c-0.1-0.1-0.2-0.3-0.2-0.4l-0.3-1.6
						h4.7l-0.3-1.2h-4.7l-0.4-1.9c0-0.1,0-0.3,0-0.3c0.1-0.1,0.2-0.1,0.5-0.1h4.2l-0.3-1.2H-241.6z"/>
				</g>
				<g id="g241" transform="translate(381.5879,396.4579)">
					<path id="path243" class="st1" d="M-249,390.7c-0.4-0.6-0.6-1-1.3-1c-0.8,0-0.8,0.5-0.9,1l-0.9,5.4c0,0.1-0.1,0.3-0.1,0.3
						c-0.1,0-0.2-0.2-0.2-0.2l-1.3-6.3h-1.5l1.5,7.1c0.2,1,1.3,1.1,1.5,1.1c0.9,0,1.1-0.5,1.2-1l0.9-5.4c0-0.2,0.1-0.3,0.2-0.3
						s0.2,0.1,0.3,0.3l3.2,5.4c0.5,0.9,1,1,1.6,1c0.7,0,1.2-0.3,1.1-1.1l-1.5-7.1h-1.5l1.4,6.3c0,0.2,0,0.2-0.1,0.2
						c-0.1,0-0.2-0.2-0.2-0.3L-249,390.7z"/>
				</g>
				<g id="g245" transform="translate(395.2559,396.9394)">
					<path id="path247" class="st1" d="M-253.2,390.6h4.4c0.7,0,0.9,0.6,0.9,0.9c0.1,0.3,0.1,0.7-0.6,0.9l-2.9,1
						c-0.1,0-0.6,0.2-0.8,0.6c-0.3,0.4-0.2,1.1-0.1,1.5c0.1,0.5,0.3,1.1,0.8,1.5c0.5,0.4,1,0.5,1.4,0.5h4.5l-0.3-1.2h-4
						c-0.2,0-0.4,0-0.7-0.2c-0.2-0.2-0.3-0.5-0.3-0.6c-0.1-0.4,0-0.7,0.5-0.9l2.7-0.9c0.5-0.2,0.8-0.3,1-0.6
						c0.4-0.5,0.3-1.2,0.2-1.6c-0.1-0.5-0.3-1.1-0.7-1.5c-0.5-0.5-1-0.6-1.5-0.6h-4.8L-253.2,390.6z"/>
				</g>
			</g>
		</g>
	</g>
</g>
</svg>
